<svg xmlns="http://www.w3.org/2000/svg" xmlns:xlink="http://www.w3.org/1999/xlink" width="343.584" height="172.487" viewBox="0 0 343.584 172.487"><defs><clipPath id="a"><rect width="343.584" height="172.487" fill="none"/></clipPath></defs><g style="isolation:isolate"><g clip-path="url(#a)"><path d="M181.127,255.545c.732,10.022-7.185,10.891-16.154,10.891-6.132,0-12.356-.229-14.69-4.347s-2.2-14.461,0-18.168c1.785-2.975,5.72-4.119,10.48-4.347,10.251-.641,19.952-.229,20.181,10.342H169.961a3.9,3.9,0,0,0-.641-2.654c-1.281-1.6-6.864-1.281-8.008-.32s-1.053,4.347-1.053,5.491-.092,4.668.641,6.041,7.917,1.693,8.878-.32a6.392,6.392,0,0,0,.229-2.654ZM22.7,257.1l-7.047-17.435H0v26.4H10.754V249.733l6.452,16.383H28.19l6.452-16.383v16.383H45.3V239.665H29.791Zm220.986,0-7.093-17.435H221.078v26.4H231.74V249.733l6.452,16.383h10.983l6.452-16.383v16.383h10.663V239.665H250.778ZM59.491,255.636H77.11v-5.72H59.445v-3.89H77.7v-6.361H48.691v26.4H78.071v-6.315H59.445Zm47.593-.824c5.72,1.373,5.171,4.53,5.171,5.583v5.583H101.18v-4.347c0-3.569-1.922-3.386-4.347-3.386H92.211v7.688H81.457V239.574h18.4c9.93,0,12.585,2.746,12.585,8.649a6.334,6.334,0,0,1-5.354,6.59M101.272,249c0-2.837-1.922-2.975-4.21-2.975H92.3v6.041h4.759c2.334,0,4.21-.229,4.21-3.066m37.3,1.144-11.074-1.053a1.693,1.693,0,0,1-1.6-1.464c0-1.281,1.373-2.014,4.347-2.014a11.109,11.109,0,0,1,3.707.32,1.823,1.823,0,0,1,1.144,2.014H145.25c1.053-6.864-4.21-8.558-15.651-8.558-4.942,0-8.786.229-11.212,1.6s-3.386,3.478-3.478,6.636c-.092,4.21,2.334,6.636,7.185,7.413l11.3.824a2.425,2.425,0,0,1,2.105,2.105c0,1.144-1.144,2.105-4.21,2.105-1.6,0-4.347-.092-5.08-.549s-.824-1.373-.961-2.2H114.818c0,3.295.549,5.4,2.105,6.635,3.066,2.425,8.466,2.425,13.82,2.425,11.074,0,15.971-1.6,15.971-9.061-.229-4.759-3.158-6.452-8.146-7.185m68.14-.732H194.764v-9.747H183.781v26.4h10.983v-9.793h11.944v9.839h10.983V239.665H206.708Zm87.772-9.747,11.074,26.4H293.748l-1.785-4.439h-10.8l-1.785,4.439H267.664l11.074-26.4Zm-4.53,15.971-3.386-9.839-3.386,9.839Zm43.108-15.971V257.1l-10.983-17.435H306.836v26.4H317.27V248.68l11.074,17.435h15.193V239.665Z" transform="translate(0 -129.836)" fill="#f00c00"/><path d="M219.3,336.147c0,7.413-4.851,8.969-15.971,8.969-5.4,0-10.663,0-13.82-2.334-1.6-1.281-2.105-3.386-2.105-6.635h10.48a2.448,2.448,0,0,0,.961,2.2c.732.412,3.569.549,5.08.549,3.066,0,4.21-.824,4.21-2.013s-.824-1.922-2.105-2.105l-11.3-.824c-4.851-.732-7.276-3.066-7.185-7.413.092-3.066,1.144-5.4,3.478-6.636s6.315-1.6,11.212-1.6c11.395,0,16.7,1.693,15.651,8.466H207.673c0-1.053-.229-1.693-1.144-2.014a13.491,13.491,0,0,0-3.707-.32c-2.975,0-4.347.732-4.347,2.014s.641,1.373,1.6,1.464l11.074,1.052c5.171.824,8.146,2.517,8.146,7.185m136.143,0c0,7.413-4.851,8.969-15.971,8.969-5.4,0-10.663,0-13.82-2.334-1.6-1.281-2.105-3.386-2.105-6.635h10.48a2.448,2.448,0,0,0,.961,2.2c.732.412,3.569.549,5.171.549,3.066,0,4.21-.824,4.21-2.013s-.824-1.922-2.105-2.105l-11.3-.824c-4.851-.732-7.276-3.066-7.185-7.413.092-3.066,1.144-5.4,3.478-6.636s6.315-1.6,11.212-1.6c11.395,0,16.7,1.693,15.651,8.466H343.953c0-1.053-.229-1.693-1.144-2.014a13.491,13.491,0,0,0-3.707-.32c-2.975,0-4.347.732-4.347,2.014s.641,1.373,1.6,1.464l11.074,1.052c5.08.824,8.008,2.517,8.008,7.185m-89.969,2.425h18.58v6.315H254.808V318.529H283.73v6.315H265.471v4.027h17.618v5.72H265.471Zm-33.5,0h18.58v6.315H221.218V318.529H250.14v6.315H231.881v4.027H249.5v5.72H231.881c.092,0,.092,4.027.092,4.027m76.148-19.861H287.986v26.176h20.181c4.668,0,8.649-.732,10.983-3.066s2.654-5.492,2.654-10.022-.641-8.008-2.654-10.022-6.224-3.066-10.983-3.066M304.78,338.71h-5.949V325.073h5.9c6.041,0,5.9,1.053,5.9,6.864s.092,6.773-5.9,6.773" transform="translate(-101.641 -172.639)" fill="#267e2a"/><path d="M285.2,84.386l3.57,15.559h22.607l3.8-15.559,3.615,15.559h44.893L340.114,0H303.871l-3.8,15.513L296.366,0h-36.2L236.6,99.945h44.8Z" transform="translate(-128.326)" fill="#f00c00"/><path d="M365.418,101.291H336.45l-9.381-39.813-9.427,39.813H306.476l-9.427-39.813-9.381,39.813H258.7L278.469,17.5h26.176l7.414,31.713L319.472,17.5h26.176Z" transform="translate(-140.313 -9.492)" fill="#fff"/><path d="M433.391,85.02c.549-1.144.961-2.975.412-4.119a1.876,1.876,0,0,0-.961-1.053,1.556,1.556,0,0,0-.732-.092,5.3,5.3,0,0,0-3.89,2.334c-1.053,1.51-2.105,5.08-2.425,5.812v.824l-1.6-6.59.092-.092c.412-.32,1.785-1.144,2.654-1.785a17.253,17.253,0,0,0,3.295-3.478c.641-.961,2.105-4.119,1.144-5.72-.412-.732-1.281-1.053-2.654-.824s-3.8,3.066-4.347,5.4c-.229.732-.732,2.2-.824,2.425l-.32.732-1.693-6.956.092-.092a27.178,27.178,0,0,0,3.158-2.105c1.6-1.373,3.707-3.386,4.119-5.812a3.58,3.58,0,0,0-.549-2.975,1.968,1.968,0,0,0-1.831-.686c-2.2.32-4.119,3.158-4.53,5.08-.229,1.053-.732,2.517-.824,2.975l-.32.824-1.693-7.093.229-.092a18.4,18.4,0,0,0,5.171-4.119c.961-1.144,2.746-5.08,1.373-6.864a1.51,1.51,0,0,0-1.281-.641,5.832,5.832,0,0,0-3.569,2.014c-1.281,1.464-2.2,4.439-2.517,5.263l-.32.824L416.871,52.3l.091-.092c.549-.412,5.583-3.8,6.636-6.956.549-1.6.641-3.569-.549-4.347a1.785,1.785,0,0,0-1.053-.32c-1.373,0-2.837,1.281-3.478,2.105-1.373,1.785-2.2,6.041-2.2,6.041l-.091.549s-1.693-1.144-.961-6.636c0-.32.092-.549.092-.732a11.949,11.949,0,0,0-1.144-5.171c-.824-1.785-1.6-1.922-2.837-1.6s-1.785,1.281-1.785,2.746a11.257,11.257,0,0,0,1.281,5.171,2.2,2.2,0,0,0,.412.641c3.158,4.119,2.014,6.224,2.014,6.224l-.32-.412c-.32-.32-2.654-3.386-4.668-4.347a6.5,6.5,0,0,0-2.654-.641,2.274,2.274,0,0,0-2.2,1.053c-.412.732.32,2.975,1.464,4.119,2.2,2.2,7.917,3.158,8.969,3.295h.229v.229l1.373,5.72-.641-.641a15.935,15.935,0,0,0-4.439-3.478,7.6,7.6,0,0,0-2.517-.549c-.961,0-2.105.229-2.334,1.373-.412,2.105,2.974,4.851,4.347,5.491a17.337,17.337,0,0,0,6.452,1.373h.229l1.693,6.956-.641-.641c-.412-.412-1.373-1.373-2.014-2.105s-3.386-2.746-5.263-2.746a3.112,3.112,0,0,0-1.053.229,2.059,2.059,0,0,0-1.373,1.281,3.367,3.367,0,0,0,.824,3.066c1.464,1.922,4.21,2.837,6.224,3.386a30.432,30.432,0,0,0,3.707.412h.229v.229l1.6,6.773-.641-.549c-.549-.549-1.373-1.281-1.693-1.693a8.151,8.151,0,0,0-5.4-2.975,1.556,1.556,0,0,0-.732.092c-1.281.412-1.922,1.053-2.013,1.785-.229,1.693,2.425,4.027,3.569,4.668a15.925,15.925,0,0,0,4.53,1.693,26.118,26.118,0,0,0,3.066.412h.229v.229l1.464,6.315-.641-.641a29.972,29.972,0,0,0-4.668-3.89,5.583,5.583,0,0,0-2.746-.732,3.386,3.386,0,0,0-2.334.732,1.373,1.373,0,0,0-.32,1.281c.092,1.281,1.281,2.654,2.2,3.478a14.171,14.171,0,0,0,4.668,2.105,16.62,16.62,0,0,0,4.21.32h.229V92.2l2.2,9.519a1.51,1.51,0,0,0,1.464,1.144h.32a1.556,1.556,0,0,0,.961-.641,1.464,1.464,0,0,0,.229-1.144l-2.334-9.7.229-.092a22.7,22.7,0,0,0,3.707-2.2,12.565,12.565,0,0,0,3.158-4.027" transform="translate(-218.766 -18.985)" fill="#267e2a"/></g></g></svg>